<svg width="200" height="200" viewBox="0 0 24 24" fill="none" xmlns="http://www.w3.org">
  <defs>
    <linearGradient id="mapleGradient" x1="0%" y1="0%" x2="100%" y2="100%">
      <stop offset="0%" style="stop-color:#e63946;stop-opacity:1" />
      <stop offset="50%" style="stop-color:#f4a261;stop-opacity:1" />
      <stop offset="100%" style="stop-color:#e9c46a;stop-opacity:1" />
    </linearGradient>
  </defs>
  <path d="M12 2C11.5 4 10 5 8 4.5C8.5 6.5 7.5 8 5.5 7.5C6.5 9 6 10.5 4 11C6 11.5 6.5 13 5 14.5C7 14 8.5 15 8 17C10 16 11.5 17.5 11 19.5L12 22L13 19.5C12.5 17.5 14 16 16 17C15.5 15 17 14 19 14.5C17.5 13 18 11.5 20 11C18 10.5 17.5 9 18.5 7.5C16.5 8 15.5 6.5 16 4.5C14 5 12.5 4 12 2Z" fill="url(#mapleGradient)"/>
  <path d="M12 22V15" stroke="#8d2d2d" stroke-width="0.5" stroke-linecap="round"/>
</svg>

